{"glyphs":{"0":{"ha":678,"x_min":-17,"x_max":593,"o":"m 593 203 q 557 60 593 133 q 441 -14 520 -14 l 136 -14 q 20 60 57 -14 q -17 203 -17 133 l -17 712 q 20 856 -17 782 q 136 929 57 929 l 441 929 q 557 856 520 929 q 593 711 593 782 l 593 203 m 424 237 l 425 678 q 409 789 425 745 q 339 834 394 834 l 237 834 q 168 789 182 834 q 153 677 153 744 l 153 237 q 168 126 153 170 q 237 81 183 81 l 339 82 q 409 126 394 82 q 424 237 424 171 z "},"1":{"ha":373,"x_min":-17,"x_max":288,"o":"m 119 834 l -17 833 l -17 929 l 288 929 l 288 -14 l 119 -14 l 119 834 z "},"2":{"ha":644,"x_min":-17,"x_max":559,"o":"m 559 644 q 523 468 559 541 q 406 394 486 395 l 203 394 q 168 349 182 394 q 153 237 153 304 l 153 82 l 526 82 l 526 -14 l -17 -14 l -17 238 q 20 415 -17 342 q 135 488 56 488 l 338 489 q 375 534 360 489 q 390 645 390 578 q 378 772 390 712 q 338 835 367 831 l 17 835 l 17 930 l 407 930 q 523 839 487 930 q 559 644 559 749 z "},"3":{"ha":577,"x_min":-17,"x_max":492,"o":"m -17 834 l -17 929 l 340 929 q 455 856 418 929 q 492 678 492 782 q 456 503 492 574 q 439 475 446 482 q 457 446 446 467 q 492 271 492 375 q 455 60 492 134 q 339 -14 418 -14 l -17 -14 l -17 81 l 271 81 q 308 127 293 83 q 323 271 323 172 q 308 382 323 338 q 272 427 293 427 l 119 427 l 119 522 l 271 522 q 308 568 293 524 q 323 678 323 612 q 308 789 323 745 q 272 834 293 834 l -17 834 z "},"4":{"ha":644,"x_min":-17,"x_max":559,"o":"m 492 929 l 492 319 l 559 319 l 559 224 l 492 224 l 492 -14 l 322 -14 l 322 224 l -17 224 l -17 273 l 259 929 l 492 929 m 322 672 l 174 319 l 322 319 l 322 672 z "},"5":{"ha":644,"x_min":-17,"x_max":559,"o":"m 559 272 q 523 77 559 167 q 406 -14 486 -14 l 17 -14 l 17 81 l 338 81 q 378 144 367 85 q 389 271 389 204 q 374 382 389 337 q 338 427 359 427 l -17 427 l -17 930 l 526 930 l 526 834 l 153 834 l 153 522 l 406 522 q 522 448 486 522 q 559 272 559 375 z "},"6":{"ha":645,"x_min":-17,"x_max":560,"o":"m -16 251 l -17 644 q 20 856 -17 782 q 136 929 57 929 l 492 929 l 492 834 l 203 834 q 168 789 183 834 q 153 644 153 745 l 153 233 l 153 232 q 168 126 153 171 q 204 81 182 81 l 340 81 q 376 126 361 81 q 391 237 391 170 q 375 364 390 303 q 338 427 359 425 l 187 427 l 187 522 l 407 522 q 523 431 487 522 q 560 237 559 340 q 523 59 560 132 q 408 -14 486 -14 l 136 -14 q 20 60 57 -14 q -17 251 -17 134 l -16 251 z "},"7":{"ha":644,"x_min":-24,"x_max":566,"o":"m 353 834 l -17 834 l -17 929 l 566 929 l 148 -14 l -24 -14 l 353 834 z "},"8":{"ha":646,"x_min":-17,"x_max":561,"o":"m 203 834 q 168 789 182 834 q 153 678 153 745 q 168 568 153 612 q 204 522 182 524 l 340 522 q 376 568 361 524 q 391 678 391 612 q 376 789 391 745 q 340 834 361 834 l 203 834 m 203 427 q 168 382 182 427 q 153 271 153 338 q 168 127 153 172 q 204 81 182 83 l 340 81 q 376 127 361 83 q 391 271 391 172 q 376 382 391 338 q 340 427 361 427 l 203 427 m 136 -14 q 20 60 57 -14 q -17 271 -17 134 q 18 446 -17 375 q 37 475 29 467 q 19 503 29 482 q -17 678 -17 574 q 20 856 -17 782 q 136 929 57 929 l 408 929 q 524 856 487 929 q 561 678 561 782 q 525 503 561 574 q 507 475 515 482 q 526 446 515 467 q 561 271 561 375 q 524 60 561 134 q 408 -14 487 -14 l 136 -14 z "},"9":{"ha":646,"x_min":-17,"x_max":561,"o":"m 560 665 l 561 271 q 524 60 561 134 q 408 -14 487 -14 l 52 -14 l 52 81 l 340 81 q 376 126 361 81 q 391 271 391 171 l 391 683 l 391 684 q 376 789 391 745 q 340 834 361 834 l 204 834 q 168 789 183 834 q 153 677 153 744 q 168 568 153 612 q 205 522 183 524 l 356 522 l 356 427 l 136 427 q 20 501 57 427 q -17 678 -16 574 q 20 856 -17 783 q 136 929 58 929 l 408 929 q 524 856 487 929 q 561 665 561 782 l 560 665 z "},"\u0000":{"ha":102,"x_min":0,"x_max":0,"o":""},"\u001d":{"ha":102,"x_min":0,"x_max":0,"o":""}," ":{"ha":678,"x_min":0,"x_max":0,"o":""}," ":{"ha":678,"x_min":0,"x_max":0,"o":""},"!":{"ha":238,"x_min":-17,"x_max":153,"o":"m 153 -14 l -17 -14 l -16 149 l 153 149 l 153 -14 m 153 191 l -16 190 l -16 929 l 153 929 l 153 191 z "},"\"":{"ha":441,"x_min":-17,"x_max":356,"o":"m -17 929 l 153 929 l 153 779 l 115 631 l 20 631 l -17 779 l -17 929 m 186 929 l 356 929 l 356 779 l 319 631 l 224 631 l 186 779 l 186 929 z "},"#":{"ha":780,"x_min":-17,"x_max":695,"o":"m 288 292 l 288 122 l 119 122 l 119 292 l -17 292 l -17 387 l 119 386 l 119 564 l -17 564 l -17 658 l 119 657 l 119 827 l 288 827 l 288 658 l 390 658 l 390 827 l 559 827 l 559 657 l 695 658 l 695 563 l 559 563 l 559 386 l 695 387 l 695 292 l 559 292 l 559 122 l 390 122 l 390 292 l 288 292 m 288 564 l 288 387 l 390 387 l 390 564 l 288 564 z "},"$":{"ha":645,"x_min":-17,"x_max":560,"o":"m 186 827 l 186 929 l 356 929 l 356 827 l 526 827 l 526 732 l 204 732 q 167 704 180 732 q 153 611 153 676 q 168 552 154 580 q 205 524 182 524 l 408 524 q 523 466 486 523 q 560 306 560 410 q 523 144 560 200 q 408 88 486 88 l 356 88 l 356 -14 l 186 -14 l 186 88 l 18 88 l 18 183 l 338 183 q 380 213 370 187 q 391 305 391 239 q 377 399 391 370 q 340 428 363 428 l 136 427 q 21 484 59 429 q -17 611 -16 540 q 20 772 -17 716 q 135 827 58 827 l 186 827 z "},"%":{"ha":847,"x_min":-17,"x_max":762,"o":"m 593 238 q 578 349 593 304 q 509 394 563 394 q 439 349 454 394 q 425 237 425 304 q 439 126 425 170 q 508 82 454 82 q 578 126 563 82 q 593 238 593 171 m 321 679 q 307 790 321 745 q 237 835 292 835 q 168 790 182 835 q 153 678 153 745 q 168 567 153 611 q 237 523 182 523 q 307 567 292 523 q 321 679 321 612 m 460 848 l 496 929 l 668 929 l 473 489 l 610 489 q 726 415 689 489 q 762 271 762 342 l 762 203 q 726 60 762 133 q 610 -14 689 -14 l 407 -14 q 290 63 328 -14 q 283 75 283 75 q 282 75 282 75 q 285 66 282 73 l 250 -14 l 78 -14 l 274 427 l 136 427 q 20 500 57 427 q -17 644 -17 574 l -17 713 q 20 856 -17 783 q 136 930 57 930 l 338 930 q 456 853 418 930 q 463 840 462 840 q 460 848 463 842 z "},"&":{"ha":645,"x_min":-17,"x_max":560,"o":"m 425 81 l 560 81 l 560 -14 l 136 -14 q 20 60 57 -14 q -17 271 -17 134 q 18 446 -17 375 q 37 475 29 467 q 19 503 29 482 q -17 678 -17 574 q 20 856 -17 782 q 136 929 57 929 l 357 929 l 357 834 l 203 834 q 168 789 182 834 q 153 678 153 745 q 168 568 153 612 q 204 522 182 524 l 492 522 l 492 427 l 425 427 l 425 81 m 255 427 l 203 427 q 168 382 182 427 q 153 271 153 338 q 168 127 153 172 q 204 81 182 83 l 255 81 l 255 427 z "},"'":{"ha":238,"x_min":-17,"x_max":153,"o":"m -17 929 l 153 929 l 153 779 l 115 631 l 20 631 l -17 779 l -17 929 z "},"(":{"ha":441,"x_min":-17,"x_max":357,"o":"m 357 -149 l 136 -149 q 20 -76 57 -149 q -17 67 -17 -3 l -17 848 q 20 991 -17 918 q 136 1065 57 1065 l 357 1065 l 357 970 l 237 970 q 168 925 182 970 q 153 813 153 880 l 153 102 q 168 -10 153 35 q 237 -54 183 -54 l 357 -54 l 357 -149 z "},")":{"ha":441,"x_min":-17,"x_max":357,"o":"m -17 -54 l 102 -54 q 172 -10 157 -54 q 186 102 186 35 l 186 813 q 172 925 186 880 q 102 970 157 970 l -17 970 l -17 1065 l 204 1065 q 320 991 283 1065 q 357 848 357 918 l 357 67 q 320 -76 357 -3 q 204 -149 283 -149 l -17 -149 l -17 -54 z "},"*":{"ha":543,"x_min":-17,"x_max":458,"o":"m 75 1038 l -17 1038 l -17 1133 l 75 1133 l -5 1200 l 177 1200 l 220 1163 l 264 1200 l 446 1200 l 366 1133 l 458 1133 l 458 1038 l 366 1038 l 446 970 l 264 970 l 220 1007 l 177 970 l -5 970 l 75 1038 z "},"+":{"ha":509,"x_min":-17,"x_max":425,"o":"m 119 428 l -17 428 l -17 521 l 119 522 l 119 692 l 288 692 l 288 522 l 425 522 l 424 428 l 288 428 l 288 258 l 119 258 l 119 428 z "},",":{"ha":238,"x_min":-18,"x_max":153,"o":"m -16 5 l -17 149 l 153 149 l 153 -14 l 149 -14 l 115 -149 l 20 -149 l -18 3 l -16 5 z "},"-":{"ha":509,"x_min":-17,"x_max":424,"o":"m -17 521 l 424 522 l 424 428 l -17 427 l -17 521 z "},"­":{"ha":509,"x_min":-17,"x_max":424,"o":"m -17 521 l 424 522 l 424 428 l -17 427 l -17 521 z "},".":{"ha":238,"x_min":-17,"x_max":153,"o":"m 153 -14 l -16 -14 l -17 149 l 153 149 l 153 -14 z "},"/":{"ha":644,"x_min":-24,"x_max":566,"o":"m 395 929 l 566 929 l 148 -14 l -24 -14 l 395 929 z "},":":{"ha":237,"x_min":-17,"x_max":153,"o":"m -17 556 l 153 556 l 153 393 l -17 393 l -17 556 m -17 -14 l -17 149 l 153 149 l 153 -14 l -17 -14 z "},";":{"ha":237,"x_min":-17,"x_max":153,"o":"m -17 556 l 153 556 l 153 393 l -17 393 l -17 556 m -17 149 l 153 149 l 153 -1 l 115 -149 l 20 -149 l -17 -1 l -17 149 z "},";":{"ha":237,"x_min":-17,"x_max":153,"o":"m -17 556 l 153 556 l 153 393 l -17 393 l -17 556 m -17 149 l 153 149 l 153 -1 l 115 -149 l 20 -149 l -17 -1 l -17 149 z "},"<":{"ha":509,"x_min":-24,"x_max":450,"o":"m -24 475 l 264 692 l 450 692 l 160 475 l 450 258 l 264 258 l -24 475 z "},"=":{"ha":509,"x_min":-17,"x_max":425,"o":"m -17 624 l 425 624 l 425 529 l -17 529 l -17 624 m -17 420 l 425 420 l 425 326 l -17 326 l -17 420 z "},">":{"ha":509,"x_min":-43,"x_max":431,"o":"m 142 258 l -43 258 l 247 475 l -43 692 l 142 692 l 431 475 l 142 258 z "},"?":{"ha":610,"x_min":-17,"x_max":525,"o":"m 85 189 l 85 237 q 121 415 85 342 q 237 488 158 488 l 305 488 q 341 534 326 489 q 356 645 356 578 q 345 772 356 712 q 304 835 333 831 l -17 835 l -17 930 l 373 930 q 489 839 453 930 q 525 644 525 749 q 489 468 525 541 q 373 393 452 395 l 305 393 q 269 349 283 393 q 255 237 255 304 l 255 189 l 85 189 m 254 149 l 254 -14 l 85 -14 l 85 149 l 254 149 z "},"@":{"ha":747,"x_min":-17,"x_max":662,"o":"m 477 793 l 477 794 q 408 834 463 834 l 237 834 q 168 789 182 834 q 153 677 153 744 l 153 237 q 168 126 153 170 q 237 81 183 81 l 594 81 l 594 -14 l 136 -14 q 20 60 57 -14 q -17 203 -17 133 l -17 712 q 20 856 -17 782 q 136 929 57 929 l 509 929 q 625 856 589 929 q 662 711 662 782 l 662 122 l 340 122 q 224 178 262 122 q 187 339 187 234 q 224 500 187 444 q 339 555 262 555 l 458 555 l 459 461 l 408 461 q 372 432 386 460 q 357 339 357 404 q 371 245 357 274 q 408 217 385 217 l 492 217 l 492 576 q 478 670 492 642 q 441 699 464 699 l 187 699 l 187 793 l 477 793 z "},"A":{"ha":644,"x_min":-20,"x_max":562,"o":"m 189 190 l 151 -14 l -20 -14 l 155 929 l 388 929 l 562 -14 l 392 -14 l 354 190 l 189 190 m 205 285 l 337 285 l 271 640 l 205 285 z "},"B":{"ha":644,"x_min":-17,"x_max":559,"o":"m -17 -14 l -17 929 l 407 929 q 523 856 486 929 q 559 678 559 782 q 524 503 559 574 q 506 475 513 482 q 524 446 513 467 q 559 271 559 375 q 523 60 559 134 q 406 -14 486 -14 l -17 -14 m 338 522 q 375 568 360 524 q 390 678 390 612 q 375 789 390 745 q 339 834 360 834 l 153 834 l 153 81 l 338 81 q 375 127 360 83 q 390 271 390 172 q 375 382 390 338 q 339 427 360 427 l 186 427 l 186 522 l 338 522 z "},"C":{"ha":577,"x_min":-17,"x_max":492,"o":"m 492 -14 l 136 -14 q 20 60 57 -14 q -17 203 -17 133 l -17 712 q 20 856 -17 782 q 136 929 57 929 l 492 929 l 492 834 l 237 834 q 168 789 182 834 q 153 677 153 744 l 153 237 q 168 126 153 170 q 237 81 183 81 l 492 81 l 492 -14 z "},"D":{"ha":644,"x_min":-17,"x_max":559,"o":"m 559 202 q 523 59 559 132 q 408 -14 486 -14 l -17 -14 l -17 929 l 408 929 q 523 855 486 928 q 559 711 559 781 l 559 202 m 390 237 l 391 677 q 375 789 391 744 q 305 834 360 833 l 153 834 l 153 82 l 305 81 q 375 126 360 81 q 390 237 390 170 z "},"E":{"ha":543,"x_min":-17,"x_max":458,"o":"m 458 -14 l -17 -14 l -17 929 l 458 929 l 458 834 l 153 834 l 153 522 l 355 522 l 355 427 l 153 428 l 153 81 l 458 81 l 458 -14 z "},"F":{"ha":543,"x_min":-17,"x_max":458,"o":"m -17 -14 l -17 929 l 458 929 l 458 834 l 153 834 l 153 522 l 355 522 l 355 427 l 153 428 l 153 -14 l -17 -14 z "},"G":{"ha":646,"x_min":-17,"x_max":561,"o":"m 136 -14 q 20 60 57 -14 q -17 203 -17 133 l -17 712 q 20 856 -17 782 q 136 929 57 929 l 492 929 l 492 834 l 237 834 q 168 789 182 834 q 153 677 153 744 l 153 237 q 168 126 153 170 q 237 81 183 81 l 391 81 l 391 427 l 222 427 l 222 522 l 561 522 l 561 -14 l 136 -14 z "},"H":{"ha":678,"x_min":-17,"x_max":593,"o":"m 593 -14 l 424 -14 l 424 427 l 153 428 l 153 -14 l -17 -14 l -17 930 l 153 929 l 153 522 l 424 522 l 424 930 l 593 929 l 593 -14 z "},"I":{"ha":239,"x_min":-17,"x_max":154,"o":"m -17 -14 l -17 929 l 154 929 l 153 -14 l -17 -14 z "},"J":{"ha":578,"x_min":-17,"x_max":493,"o":"m -17 81 l 238 81 q 307 126 292 81 q 323 237 322 171 l 323 834 l 188 834 l 188 929 l 493 929 l 493 203 q 455 60 492 133 q 340 -14 418 -14 l -17 -14 l -17 81 z "},"K":{"ha":644,"x_min":-17,"x_max":571,"o":"m 153 366 l 153 -14 l -17 -14 l -17 929 l 153 929 l 153 576 l 397 929 l 571 929 l 256 475 l 570 -14 l 397 -14 l 153 366 z "},"L":{"ha":543,"x_min":-17,"x_max":458,"o":"m 458 -14 l -17 -14 l -17 929 l 153 929 l 153 81 l 458 81 l 458 -14 z "},"M":{"ha":780,"x_min":-17,"x_max":695,"o":"m 153 366 l 153 -14 l -17 -14 l -17 929 l 218 929 l 339 275 l 460 929 l 695 929 l 695 -14 l 526 -14 l 526 366 l 456 -14 l 222 -14 l 153 366 z "},"N":{"ha":678,"x_min":-17,"x_max":593,"o":"m 153 609 l 153 -14 l -17 -14 l -17 929 l 216 929 l 424 307 l 424 929 l 593 929 l 593 -14 l 360 -14 l 153 609 z "},"O":{"ha":678,"x_min":-17,"x_max":593,"o":"m 593 203 q 557 60 593 133 q 441 -14 520 -14 l 136 -14 q 20 60 57 -14 q -17 203 -17 133 l -17 712 q 20 856 -17 782 q 136 929 57 929 l 441 929 q 557 856 520 929 q 593 711 593 782 l 593 203 m 424 237 l 425 678 q 409 789 425 745 q 339 834 394 834 l 237 834 q 168 789 182 834 q 153 677 153 744 l 153 237 q 168 126 153 170 q 237 81 183 81 l 339 82 q 409 126 394 82 q 424 237 424 171 z "},"P":{"ha":645,"x_min":-17,"x_max":560,"o":"m 560 678 q 523 501 559 574 q 407 427 486 427 l 187 427 l 187 522 l 338 522 q 375 568 360 524 q 391 677 390 612 q 375 789 391 744 q 339 834 360 834 l 153 834 l 153 -14 l -17 -14 l -17 929 l 408 929 q 523 856 486 929 q 560 678 560 783 z "},"Q":{"ha":678,"x_min":-17,"x_max":593,"o":"m 424 237 l 425 678 q 409 789 425 745 q 339 834 394 834 l 237 834 q 168 789 182 834 q 153 677 153 744 l 153 237 q 168 126 153 170 q 237 81 183 81 l 339 82 q 409 126 394 82 q 424 237 424 171 m 273 -14 l 136 -14 q 20 60 57 -14 q -17 203 -17 133 l -17 712 q 20 856 -17 782 q 136 929 57 929 l 441 929 q 557 856 520 929 q 593 711 593 782 l 593 203 q 557 60 593 133 q 441 -14 520 -14 l 447 -14 l 537 -149 l 363 -149 l 273 -14 z "},"R":{"ha":645,"x_min":-17,"x_max":560,"o":"m 391 258 l 390 258 q 375 382 390 338 q 339 427 360 427 l 186 427 l 186 522 l 338 522 q 375 568 360 524 q 390 678 390 612 q 375 789 390 745 q 339 834 360 834 l 153 834 l 153 -14 l -17 -14 l -17 929 l 407 929 q 523 856 486 929 q 559 678 559 782 q 524 503 559 574 q 506 475 513 482 q 524 446 513 467 q 559 277 559 375 l 560 276 l 560 -14 l 391 -14 l 391 258 z "},"S":{"ha":644,"x_min":-17,"x_max":559,"o":"m 559 272 q 523 77 559 167 q 407 -14 487 -14 l 17 -14 l 17 81 l 338 81 q 378 144 367 85 q 390 271 390 204 q 375 382 390 337 q 338 427 360 427 l 135 427 q 20 500 56 427 q -17 678 -17 574 q 20 856 -17 783 q 135 929 56 929 l 526 930 l 526 834 l 203 834 q 168 789 182 834 q 153 679 153 745 q 168 567 153 612 q 203 522 182 522 l 406 522 q 523 448 486 522 q 559 272 559 375 z "},"T":{"ha":645,"x_min":-17,"x_max":560,"o":"m 560 833 l 356 833 l 356 -14 l 186 -14 l 186 833 l -16 833 l -17 929 l 560 928 l 560 833 z "},"U":{"ha":679,"x_min":-17,"x_max":594,"o":"m 153 237 q 168 126 153 170 q 237 81 183 81 l 339 82 q 409 126 394 82 q 424 237 424 171 l 425 929 l 594 929 l 593 203 q 557 60 593 133 q 441 -14 520 -14 l 136 -14 q 20 60 57 -14 q -17 203 -17 133 l -16 929 l 153 929 l 153 237 z "},"V":{"ha":644,"x_min":-20,"x_max":562,"o":"m 155 -14 l -20 929 l 151 929 l 271 275 l 392 929 l 562 929 l 388 -14 l 155 -14 z "},"W":{"ha":1051,"x_min":-20,"x_max":969,"o":"m 475 457 l 388 -14 l 155 -14 l -20 929 l 151 929 l 271 275 l 392 929 l 557 929 l 678 275 l 799 929 l 969 929 l 795 -14 l 562 -14 l 475 457 z "},"X":{"ha":644,"x_min":-24,"x_max":566,"o":"m 186 458 l -24 929 l 148 929 l 271 651 l 395 929 l 566 929 l 357 458 l 566 -14 l 395 -14 l 271 264 l 148 -14 l -24 -14 l 186 458 z "},"Y":{"ha":644,"x_min":-24,"x_max":566,"o":"m 186 456 l -24 929 l 148 929 l 271 651 l 395 929 l 566 929 l 356 456 l 356 -14 l 186 -14 l 186 456 z "},"Z":{"ha":644,"x_min":-24,"x_max":566,"o":"m 353 834 l -17 834 l -17 929 l 566 929 l 189 81 l 559 81 l 559 -14 l -24 -14 l 353 834 z "},"[":{"ha":441,"x_min":-17,"x_max":357,"o":"m 357 -149 l -16 -149 l -17 1065 l 357 1065 l 357 970 l 153 970 l 153 -54 l 357 -54 l 357 -149 z "},"\\":{"ha":644,"x_min":-24,"x_max":566,"o":"m -24 929 l 148 929 l 566 -14 l 395 -14 l -24 929 z "},"]":{"ha":441,"x_min":-17,"x_max":357,"o":"m -17 -54 l 186 -54 l 187 970 l -17 970 l -17 1065 l 357 1065 l 356 -149 l -17 -149 l -17 -54 z "},"^":{"ha":543,"x_min":-28,"x_max":469,"o":"m 220 1082 l 146 970 l -28 970 l 125 1200 l 315 1200 l 469 970 l 295 970 l 220 1082 z "},"_":{"ha":543,"x_min":-17,"x_max":458,"o":"m 458 -149 l -17 -149 l -17 -54 l 458 -54 l 458 -149 z "},"`":{"ha":543,"x_min":-47,"x_max":488,"o":"m 488 970 l 299 970 l -47 1200 l 142 1200 l 488 970 z "},"a":{"ha":678,"x_min":-17,"x_max":593,"o":"m 593 509 l 593 -14 l 136 -14 q 20 42 58 -14 q -17 203 -17 98 q 20 364 -17 309 q 135 420 58 420 l 389 420 l 390 326 l 203 326 q 168 297 182 325 q 153 203 153 269 q 167 110 153 138 q 203 81 181 81 l 423 81 l 424 509 q 410 602 424 574 q 373 631 395 631 l 119 631 l 119 726 l 441 726 q 556 670 519 726 q 593 509 593 614 z "},"b":{"ha":677,"x_min":-17,"x_max":593,"o":"m 153 81 l 338 81 q 408 126 393 81 q 423 237 423 171 l 423 475 q 408 586 423 541 q 339 631 393 630 l 186 631 l 186 726 l 441 726 q 556 652 519 726 q 593 509 593 579 l 593 204 q 556 60 593 134 q 440 -14 519 -14 l -17 -14 l -17 929 l 153 929 l 153 81 z "},"c":{"ha":576,"x_min":-17,"x_max":492,"o":"m 491 -14 l 134 -14 q 19 60 56 -14 q -17 203 -17 133 l -17 509 q 20 652 -17 579 q 135 726 56 726 l 492 726 l 492 631 l 237 631 q 167 586 182 631 q 153 474 153 541 l 153 237 q 167 126 153 171 q 236 81 182 81 l 491 81 l 491 -14 z "},"d":{"ha":677,"x_min":-17,"x_max":593,"o":"m 423 929 l 593 929 l 593 -14 l 136 -14 q 20 60 56 -14 q -17 204 -17 134 l -17 509 q 20 652 -17 579 q 135 726 56 726 l 389 726 l 389 631 l 237 631 q 168 586 182 630 q 153 475 153 541 l 153 237 q 168 126 153 171 q 237 81 182 81 l 423 81 l 423 929 z "},"e":{"ha":678,"x_min":-17,"x_max":593,"o":"m -17 203 l -17 509 q 20 670 -17 614 q 136 726 58 726 l 441 726 q 556 670 519 726 q 593 509 593 614 q 556 348 593 404 q 441 292 519 292 l 187 292 l 186 387 l 373 387 q 409 415 395 387 q 424 509 423 444 q 410 602 424 574 q 373 631 395 631 l 203 631 q 167 602 182 631 q 153 509 153 574 l 153 203 q 167 110 153 138 q 203 81 181 81 l 526 81 l 526 -14 l 136 -14 q 20 42 58 -14 q -17 203 -17 98 z "},"f":{"ha":373,"x_min":-17,"x_max":288,"o":"m 153 562 l 153 -14 l -17 -14 l -17 677 q 20 855 -17 782 q 135 928 56 928 l 288 929 l 288 833 l 203 833 q 168 789 182 833 q 153 678 153 744 l 153 657 l 288 657 l 288 562 l 153 562 z "},"g":{"ha":678,"x_min":-17,"x_max":593,"o":"m 424 0 l 423 631 l 237 631 q 168 586 182 631 q 153 475 153 541 l 153 237 q 168 126 153 171 q 237 81 182 82 l 389 81 l 389 -14 l 135 -14 q 20 60 56 -14 q -17 203 -17 133 l -17 508 q 20 652 -17 578 q 136 726 56 726 l 593 726 l 593 0 l 593 -81 l 593 -81 q 559 -258 593 -173 q 441 -353 521 -353 l 51 -353 l 51 -258 l 372 -258 q 412 -195 401 -254 q 424 -68 424 -135 l 424 0 z "},"h":{"ha":678,"x_min":-17,"x_max":593,"o":"m 153 -14 l -17 -14 l -17 929 l 153 929 l 153 726 l 441 726 q 556 652 519 726 q 593 509 593 579 l 593 454 l 593 454 l 593 -14 l 424 -14 l 424 326 l 423 326 l 423 475 q 408 586 423 541 q 339 631 393 630 l 153 631 l 153 -14 z "},"i":{"ha":238,"x_min":-17,"x_max":153,"o":"m 153 766 l -16 766 l -17 929 l 153 929 l 153 766 m 153 -14 l -16 -14 l -16 726 l 153 725 l 153 -14 z "},"j":{"ha":373,"x_min":-17,"x_max":288,"o":"m 119 726 l 288 726 l 288 -81 l 288 -81 q 254 -258 288 -173 q 136 -353 216 -353 l -17 -353 l -17 -258 l 66 -258 q 107 -195 96 -254 q 119 -68 119 -135 l 119 726 m 288 766 l 119 766 l 119 929 l 288 929 l 288 766 z "},"k":{"ha":678,"x_min":-17,"x_max":610,"o":"m -17 929 l 153 929 l 153 424 l 433 726 l 610 726 l 258 339 l 576 -14 l 398 -14 l 165 245 l 153 233 l 153 -14 l -17 -14 l -17 929 z "},"l":{"ha":239,"x_min":-17,"x_max":154,"o":"m -17 -14 l -17 929 l 154 929 l 153 -14 l -17 -14 z "},"m":{"ha":984,"x_min":-17,"x_max":899,"o":"m 526 631 l 526 -14 l 357 -14 l 357 631 l 153 631 l 153 -14 l -17 -14 l -17 726 l 747 726 q 863 652 826 726 q 899 509 899 579 l 899 -14 l 730 -14 l 730 475 q 715 586 730 542 q 646 631 700 631 l 526 631 z "},"n":{"ha":679,"x_min":-17,"x_max":594,"o":"m 424 475 q 409 586 424 542 q 340 631 394 631 l 153 631 l 153 -14 l -17 -14 l -17 726 l 441 726 q 557 652 520 726 q 594 509 594 579 l 593 -14 l 424 -14 l 424 475 z "},"o":{"ha":678,"x_min":-17,"x_max":593,"o":"m 593 203 q 557 60 593 133 q 441 -14 520 -14 l 136 -14 q 20 60 57 -14 q -17 203 -17 133 l -17 509 q 20 652 -17 578 q 136 726 57 726 l 441 726 q 557 652 520 726 q 593 508 593 578 l 593 203 m 424 237 l 424 475 q 409 586 424 541 q 339 631 394 631 l 237 631 q 168 586 182 631 q 153 474 153 541 l 153 237 q 168 126 153 170 q 237 81 183 81 l 339 82 q 409 126 394 82 q 424 237 424 171 z "},"p":{"ha":677,"x_min":-17,"x_max":593,"o":"m 153 -353 l -17 -353 l -17 726 l 440 726 q 556 652 519 726 q 593 508 593 578 l 593 203 q 556 60 593 133 q 441 -14 519 -14 l 186 -14 l 186 81 l 339 81 q 408 126 393 82 q 423 237 423 171 l 423 475 q 408 586 423 541 q 338 631 393 631 l 153 631 l 153 -353 z "},"q":{"ha":677,"x_min":-17,"x_max":593,"o":"m 423 631 l 237 631 q 168 586 182 631 q 153 475 153 541 l 153 237 q 168 126 153 171 q 237 81 182 82 l 389 81 l 389 -14 l 135 -14 q 20 60 56 -14 q -17 203 -17 133 l -17 508 q 20 652 -17 578 q 136 726 56 726 l 593 726 l 593 -353 l 423 -353 l 423 631 z "},"r":{"ha":441,"x_min":-17,"x_max":356,"o":"m 153 -14 l -17 -14 l -17 474 q 20 652 -17 578 q 136 726 56 725 l 356 726 l 356 631 l 203 631 q 168 585 182 630 q 153 475 153 541 l 153 -14 z "},"s":{"ha":645,"x_min":-17,"x_max":560,"o":"m 560 204 q 523 42 560 98 q 408 -14 486 -14 l 18 -14 l 18 81 l 338 81 q 380 112 370 85 q 391 203 391 138 q 377 297 391 268 q 340 326 363 326 l 136 326 q 21 382 59 327 q -17 509 -16 438 q 20 670 -17 614 q 135 726 58 726 l 526 726 l 526 631 l 204 631 q 167 603 180 631 q 153 509 153 574 q 168 450 154 478 q 205 422 182 422 l 408 422 q 523 365 486 421 q 560 204 560 308 z "},"t":{"ha":373,"x_min":-17,"x_max":288,"o":"m 288 726 l 288 631 l 153 631 l 153 237 q 168 126 153 171 q 203 81 182 81 l 288 81 l 288 -14 l 135 -14 q 20 60 56 -14 q -17 237 -17 133 l -17 928 l 153 929 l 153 726 l 288 726 z "},"u":{"ha":679,"x_min":-17,"x_max":594,"o":"m 153 237 q 168 126 153 170 q 237 81 183 81 l 425 81 l 425 726 l 594 726 l 594 -14 l 136 -14 q 20 60 57 -14 q -17 203 -17 133 l -16 726 l 153 726 l 153 237 z "},"v":{"ha":644,"x_min":-20,"x_max":563,"o":"m 155 -14 l -20 726 l 150 726 l 271 215 l 393 726 l 563 726 l 387 -14 l 155 -14 z "},"w":{"ha":1051,"x_min":-20,"x_max":970,"o":"m 475 355 l 387 -14 l 155 -14 l -20 726 l 150 726 l 271 215 l 393 726 l 557 726 l 678 215 l 800 726 l 970 726 l 794 -14 l 562 -14 l 475 355 z "},"x":{"ha":644,"x_min":-26,"x_max":569,"o":"m 185 356 l -26 726 l 146 726 l 271 507 l 396 726 l 569 726 l 357 356 l 569 -14 l 396 -14 l 271 205 l 146 -14 l -26 -14 l 185 356 z "},"y":{"ha":644,"x_min":-21,"x_max":564,"o":"m 270 302 l 393 726 l 564 726 l 355 5 l 359 -14 l 349 -14 l 251 -353 l 81 -353 l 184 5 l -21 726 l 149 726 l 270 302 z "},"z":{"ha":644,"x_min":-26,"x_max":569,"o":"m 342 631 l -17 631 l -17 726 l 569 726 l 201 81 l 559 81 l 559 -14 l -26 -14 l 342 631 z "},"{":{"ha":509,"x_min":-17,"x_max":424,"o":"m 288 271 l 288 102 q 303 -10 288 35 q 372 -54 318 -54 l 424 -54 l 424 -149 l 271 -149 q 155 -76 192 -149 q 118 67 118 -3 l 118 285 l 119 285 q 104 382 119 338 q 68 427 89 427 l -17 427 l -17 522 l 67 522 q 104 568 89 524 q 119 665 119 612 l 118 665 l 118 848 q 155 991 118 918 q 271 1065 192 1065 l 424 1065 l 424 970 l 372 970 q 303 925 317 970 q 288 813 288 880 l 288 678 q 252 503 288 574 q 235 475 242 482 q 253 446 242 467 q 288 271 288 375 z "},"|":{"ha":238,"x_min":-17,"x_max":153,"o":"m -16 -149 l -17 1065 l 153 1065 l 153 -149 l -16 -149 z "},"}":{"ha":509,"x_min":-17,"x_max":424,"o":"m 119 271 q 154 446 119 375 q 172 475 165 467 q 155 503 165 482 q 119 678 119 574 l 119 813 q 104 925 119 880 q 35 970 90 970 l -17 970 l -17 1065 l 136 1065 q 252 991 215 1065 q 289 848 289 918 l 289 665 l 288 665 q 303 568 288 612 q 340 522 318 524 l 424 522 l 424 427 l 339 427 q 303 382 318 427 q 288 285 288 338 l 289 285 l 289 67 q 252 -76 289 -3 q 136 -149 215 -149 l -17 -149 l -17 -54 l 35 -54 q 104 -10 89 -54 q 119 102 119 35 l 119 271 z "},"~":{"ha":644,"x_min":-21,"x_max":564,"o":"m 205 1167 q 372 1133 341 1133 q 433 1210 395 1133 l 564 1123 q 406 1004 484 1004 l 334 1004 q 168 1038 233 1037 q 109 961 146 1038 l -21 1048 q 135 1166 57 1166 l 205 1167 z "},"¡":{"ha":238,"x_min":-17,"x_max":153,"o":"m 153 766 l -16 766 l -17 929 l 153 929 l 153 766 m 153 -14 l -16 -14 l -16 726 l 153 725 l 153 -14 z "},"¢":{"ha":576,"x_min":-17,"x_max":492,"o":"m 186 827 l 186 929 l 356 929 l 356 827 l 492 827 l 492 732 l 237 732 q 167 687 182 732 q 153 576 153 642 l 153 339 q 167 228 153 273 q 236 183 182 183 l 491 183 l 491 88 l 356 88 l 356 -14 l 186 -14 l 186 88 l 134 88 q 19 161 56 88 q -17 305 -17 235 l -17 610 q 20 754 -17 681 q 135 827 56 827 l 186 827 z "},"£":{"ha":576,"x_min":-17,"x_max":492,"o":"m -17 -14 l -17 81 l 119 81 l 119 427 l -17 427 l -17 522 l 119 522 l 119 678 q 155 856 119 783 q 271 929 192 929 l 492 930 l 492 834 l 338 834 q 303 789 317 834 q 289 679 289 745 l 289 522 l 492 522 l 492 427 l 288 427 l 288 81 l 492 81 l 492 -14 l -17 -14 z "},"¤":{"ha":644,"x_min":-24,"x_max":566,"o":"m 373 407 l 372 509 q 357 621 372 576 q 288 665 342 665 l 254 666 q 184 621 199 666 q 170 509 170 576 l 170 408 q 185 296 170 340 q 254 252 200 252 l 288 252 q 358 296 343 252 q 373 407 373 340 m 223 157 l 148 -14 l -24 -14 l 66 190 q 36 233 52 202 q 0 373 0 303 l -1 544 q 35 684 -1 614 q 65 728 51 715 l -24 929 l 148 929 l 222 761 l 319 760 l 395 929 l 566 929 l 477 727 q 507 684 491 714 q 542 543 542 613 l 543 372 q 507 231 543 302 q 477 189 492 201 l 566 -14 l 395 -14 l 319 156 l 223 157 z "},"¥":{"ha":644,"x_min":-24,"x_max":566,"o":"m 186 454 l 186 456 l -24 929 l 148 929 l 271 651 l 395 929 l 566 929 l 356 456 l 356 454 l 492 454 l 492 359 l 356 359 l 356 251 l 492 251 l 492 156 l 356 156 l 356 -14 l 186 -14 l 186 156 l 51 156 l 51 251 l 186 251 l 186 359 l 51 359 l 51 454 l 186 454 z "},"¦":{"ha":238,"x_min":-17,"x_max":153,"o":"m 153 455 l 153 -149 l -16 -149 l -16 454 l 153 455 m -17 494 l -17 1065 l 153 1065 l 153 494 l -17 494 z "},"§":{"ha":644,"x_min":-17,"x_max":559,"o":"m 373 407 l 372 509 q 357 621 372 576 q 288 665 342 665 l 254 666 q 184 621 199 666 q 170 509 170 576 l 170 408 q 185 296 170 340 q 254 252 200 252 l 288 252 q 358 296 343 252 q 373 407 373 340 m 153 761 l 389 760 q 505 687 469 760 q 542 543 542 613 l 543 397 q 559 272 559 343 l 559 203 q 523 9 559 99 q 407 -81 487 -81 l 17 -81 l 17 14 l 338 14 q 378 73 367 17 q 391 156 387 121 l 153 157 q 37 230 74 157 q 0 373 0 303 l -1 544 l -1 551 q -17 678 -17 606 l -17 746 q 20 924 -17 850 q 135 997 56 997 l 526 998 l 526 902 l 203 902 q 168 857 182 902 q 153 761 155 817 z "},"¨":{"ha":509,"x_min":-17,"x_max":424,"o":"m -17 1133 l 153 1133 l 153 970 l -17 970 l -17 1133 m 254 1133 l 424 1133 l 424 970 l 254 970 l 254 1133 z "},"©":{"ha":543,"x_min":-17,"x_max":458,"o":"m 307 929 q 220 970 268 970 q 131 926 172 970 q 153 929 141 929 l 307 929 m 68 812 q 51 687 51 755 q 68 562 51 618 l 68 812 m 131 447 q 220 404 172 404 q 307 444 268 404 l 153 444 q 131 447 141 444 m 340 487 q 390 687 390 568 q 340 886 390 805 l 340 868 l 203 868 q 176 849 182 868 q 170 797 170 829 l 170 576 q 177 525 170 544 q 203 505 183 505 l 340 505 l 340 487 m 390 929 q 424 878 390 929 q 458 687 458 827 q 390 445 458 547 q 220 342 322 342 q 51 445 119 342 q -17 687 -17 547 q 51 929 -17 827 q 220 1031 119 1031 q 390 929 322 1031 z "},"ª":{"ha":1119,"x_min":0,"x_max":1017,"o":"m 136 0 q 0 136 0 0 l 0 882 q 136 1017 0 1017 l 882 1017 q 1017 882 1017 1017 l 1017 136 q 882 0 1017 0 l 136 0 m 882 17 q 1000 136 1000 17 l 1000 882 q 882 1000 1000 1000 l 136 1000 q 17 882 18 1000 l 17 136 q 136 17 18 17 l 882 17 z "},"«":{"ha":746,"x_min":-24,"x_max":687,"o":"m -24 475 l 264 692 l 450 692 l 160 475 l 450 258 l 264 258 l -24 475 m 213 475 l 502 692 l 687 692 l 397 475 l 687 258 l 502 258 l 213 475 z "},"¬":{"ha":1119,"x_min":0,"x_max":1017,"o":"m 136 0 q 0 136 0 0 l 0 882 q 136 1017 0 1017 l 882 1017 q 1017 882 1017 1017 l 1017 136 q 882 0 1017 0 l 136 0 m 882 17 q 1000 136 1000 17 l 1000 882 q 882 1000 1000 1000 l 136 1000 q 17 882 18 1000 l 17 136 q 136 17 18 17 l 882 17 z "},"®":{"ha":543,"x_min":-17,"x_max":458,"o":"m 170 726 l 253 726 q 265 745 258 726 q 271 797 271 764 q 265 849 271 829 q 254 868 258 868 l 170 868 l 170 726 m 68 831 q 51 687 51 803 q 68 543 51 570 l 68 831 m 372 814 q 373 797 373 806 q 355 708 373 744 q 349 696 349 696 q 355 683 349 695 q 373 599 373 647 l 374 598 l 374 545 q 390 687 390 572 q 372 814 390 757 m 310 926 q 220 970 269 970 q 132 929 161 970 l 288 929 q 310 926 300 929 m 170 665 l 170 444 l 132 444 q 220 404 161 404 q 309 444 279 404 l 272 444 l 272 580 l 271 580 q 265 645 271 626 q 254 665 258 665 l 170 665 m 458 687 q 390 445 458 547 q 220 342 322 342 q 51 445 119 342 q -17 687 -17 547 q 51 929 -17 827 q 220 1031 119 1031 q 390 929 322 1031 q 458 687 458 827 z "},"¯":{"ha":1119,"x_min":0,"x_max":1017,"o":"m 136 0 q 0 136 0 0 l 0 882 q 136 1017 0 1017 l 882 1017 q 1017 882 1017 1017 l 1017 136 q 882 0 1017 0 l 136 0 m 882 17 q 1000 136 1000 17 l 1000 882 q 882 1000 1000 1000 l 136 1000 q 17 882 18 1000 l 17 136 q 136 17 18 17 l 882 17 z "},"°":{"ha":479,"x_min":-17,"x_max":394,"o":"m 189 917 q 102 880 139 917 q 64 789 64 843 q 101 698 64 734 q 189 662 138 662 q 276 698 240 662 q 313 789 313 734 q 276 880 313 843 q 189 917 239 917 m 189 991 q 335 932 275 991 q 394 789 394 872 q 334 647 394 707 q 188 587 274 587 q 42 647 100 587 q -17 789 -17 706 q 43 932 -17 873 q 189 991 102 991 z "},"±":{"ha":1119,"x_min":0,"x_max":1017,"o":"m 136 0 q 0 136 0 0 l 0 882 q 136 1017 0 1017 l 882 1017 q 1017 882 1017 1017 l 1017 136 q 882 0 1017 0 l 136 0 m 882 17 q 1000 136 1000 17 l 1000 882 q 882 1000 1000 1000 l 136 1000 q 17 882 18 1000 l 17 136 q 136 17 18 17 l 882 17 z "},"²":{"ha":1119,"x_min":0,"x_max":1017,"o":"m 136 0 q 0 136 0 0 l 0 882 q 136 1017 0 1017 l 882 1017 q 1017 882 1017 1017 l 1017 136 q 882 0 1017 0 l 136 0 m 882 17 q 1000 136 1000 17 l 1000 882 q 882 1000 1000 1000 l 136 1000 q 17 882 18 1000 l 17 136 q 136 17 18 17 l 882 17 z "},"³":{"ha":1119,"x_min":0,"x_max":1017,"o":"m 136 0 q 0 136 0 0 l 0 882 q 136 1017 0 1017 l 882 1017 q 1017 882 1017 1017 l 1017 136 q 882 0 1017 0 l 136 0 m 882 17 q 1000 136 1000 17 l 1000 882 q 882 1000 1000 1000 l 136 1000 q 17 882 18 1000 l 17 136 q 136 17 18 17 l 882 17 z "},"´":{"ha":543,"x_min":-47,"x_max":488,"o":"m 299 1200 l 488 1200 l 142 970 l -47 970 l 299 1200 z "},"µ":{"ha":679,"x_min":-17,"x_max":594,"o":"m -16 183 q -17 203 -17 193 l -16 726 l 153 726 l 153 237 q 168 126 153 170 q 237 81 183 81 l 425 81 l 425 726 l 594 726 l 594 -14 l 153 -14 l 153 -353 l -16 -353 l -16 183 z "},"¶":{"ha":669,"x_min":-17,"x_max":584,"o":"m 584 987 l 584 912 l 498 912 l 498 -14 l 408 -14 l 408 912 l 330 912 l 330 -14 l 239 -14 l 239 488 q 56 561 130 493 q -17 736 -17 629 q 61 917 -17 848 q 267 987 138 987 l 584 987 z "},"·":{"ha":237,"x_min":-17,"x_max":153,"o":"m -17 556 l 153 556 l 153 393 l -17 393 l -17 556 z "},"∙":{"ha":237,"x_min":-17,"x_max":153,"o":"m -17 556 l 153 556 l 153 393 l -17 393 l -17 556 z "},"¸":{"ha":373,"x_min":-17,"x_max":288,"o":"m 119 14 l 288 14 l 288 -81 l 288 -81 q 254 -258 288 -173 q 136 -353 216 -353 l -17 -353 l -17 -258 l 66 -258 q 107 -195 96 -254 q 119 -68 119 -135 l 119 14 z "},"¹":{"ha":1119,"x_min":0,"x_max":1017,"o":"m 136 0 q 0 136 0 0 l 0 882 q 136 1017 0 1017 l 882 1017 q 1017 882 1017 1017 l 1017 136 q 882 0 1017 0 l 136 0 m 882 17 q 1000 136 1000 17 l 1000 882 q 882 1000 1000 1000 l 136 1000 q 17 882 18 1000 l 17 136 q 136 17 18 17 l 882 17 z "},"º":{"ha":1119,"x_min":0,"x_max":1017,"o":"m 136 0 q 0 136 0 0 l 0 882 q 136 1017 0 1017 l 882 1017 q 1017 882 1017 1017 l 1017 136 q 882 0 1017 0 l 136 0 m 882 17 q 1000 136 1000 17 l 1000 882 q 882 1000 1000 1000 l 136 1000 q 17 882 18 1000 l 17 136 q 136 17 18 17 l 882 17 z "},"»":{"ha":746,"x_min":-43,"x_max":669,"o":"m 380 258 l 195 258 l 484 475 l 195 692 l 380 692 l 669 475 l 380 258 m 142 258 l -43 258 l 247 475 l -43 692 l 142 692 l 431 475 l 142 258 z "},"¼":{"ha":1119,"x_min":0,"x_max":1017,"o":"m 136 0 q 0 136 0 0 l 0 882 q 136 1017 0 1017 l 882 1017 q 1017 882 1017 1017 l 1017 136 q 882 0 1017 0 l 136 0 m 882 17 q 1000 136 1000 17 l 1000 882 q 882 1000 1000 1000 l 136 1000 q 17 882 18 1000 l 17 136 q 136 17 18 17 l 882 17 z "},"½":{"ha":1119,"x_min":0,"x_max":1017,"o":"m 136 0 q 0 136 0 0 l 0 882 q 136 1017 0 1017 l 882 1017 q 1017 882 1017 1017 l 1017 136 q 882 0 1017 0 l 136 0 m 882 17 q 1000 136 1000 17 l 1000 882 q 882 1000 1000 1000 l 136 1000 q 17 882 18 1000 l 17 136 q 136 17 18 17 l 882 17 z "},"¾":{"ha":1119,"x_min":0,"x_max":1017,"o":"m 136 0 q 0 136 0 0 l 0 882 q 136 1017 0 1017 l 882 1017 q 1017 882 1017 1017 l 1017 136 q 882 0 1017 0 l 136 0 m 882 17 q 1000 136 1000 17 l 1000 882 q 882 1000 1000 1000 l 136 1000 q 17 882 18 1000 l 17 136 q 136 17 18 17 l 882 17 z "},"¿":{"ha":610,"x_min":-17,"x_max":525,"o":"m 423 727 l 423 679 q 387 502 423 574 q 271 428 350 429 l 203 428 q 167 382 182 427 q 152 271 152 338 q 163 144 152 204 q 204 81 175 85 l 525 81 l 525 -14 l 135 -14 q 19 77 55 -14 q -17 272 -17 168 q 19 448 -17 375 q 135 523 56 522 l 203 523 q 239 568 224 523 q 253 680 253 612 l 253 727 l 423 727 m 254 767 l 254 930 l 423 930 l 423 767 l 254 767 z "},"À":{"ha":644,"x_min":-20,"x_max":562,"o":"m 189 190 l 151 -14 l -20 -14 l 155 929 l 388 929 l 562 -14 l 392 -14 l 354 190 l 189 190 m 205 285 l 337 285 l 271 640 l 205 285 m 538 970 l 350 970 l 4 1200 l 193 1200 l 538 970 z "},"Á":{"ha":644,"x_min":-20,"x_max":562,"o":"m 189 190 l 151 -14 l -20 -14 l 155 929 l 388 929 l 562 -14 l 392 -14 l 354 190 l 189 190 m 205 285 l 337 285 l 271 640 l 205 285 m 350 1200 l 538 1200 l 193 970 l 4 970 l 350 1200 z "},"Â":{"ha":644,"x_min":-20,"x_max":562,"o":"m 189 190 l 151 -14 l -20 -14 l 155 929 l 388 929 l 562 -14 l 392 -14 l 354 190 l 189 190 m 205 285 l 337 285 l 271 640 l 205 285 m 271 1082 l 197 970 l 22 970 l 176 1200 l 366 1200 l 520 970 l 346 970 l 271 1082 z "},"Ã":{"ha":644,"x_min":-20,"x_max":564,"o":"m 189 190 l 151 -14 l -20 -14 l 155 929 l 388 929 l 562 -14 l 392 -14 l 354 190 l 189 190 m 205 285 l 337 285 l 271 640 l 205 285 m 206 1167 q 373 1133 342 1133 q 433 1210 395 1133 l 564 1123 q 407 1004 484 1004 l 335 1004 q 169 1038 234 1037 q 110 961 146 1038 l -20 1048 q 136 1166 58 1166 l 206 1167 z "},"Ä":{"ha":644,"x_min":-20,"x_max":562,"o":"m 189 190 l 151 -14 l -20 -14 l 155 929 l 388 929 l 562 -14 l 392 -14 l 354 190 l 189 190 m 205 285 l 337 285 l 271 640 l 205 285 m 51 1133 l 220 1133 l 220 970 l 51 970 l 51 1133 m 322 1133 l 492 1133 l 492 970 l 322 970 l 322 1133 z "},"Å":{"ha":644,"x_min":-20,"x_max":562,"o":"m 189 190 l 151 -14 l -20 -14 l 155 929 l 388 929 l 562 -14 l 392 -14 l 354 190 l 189 190 m 205 285 l 337 285 l 271 640 l 205 285 m 186 1133 l 356 1133 l 356 970 l 186 970 l 186 1133 z "},"Æ":{"ha":882,"x_min":-20,"x_max":797,"o":"m 322 834 l 319 834 l 205 285 l 322 285 l 322 834 m 322 190 l 189 190 l 151 -14 l -20 -14 l 155 929 l 797 929 l 797 834 l 492 834 l 492 522 l 694 522 l 694 427 l 492 428 l 492 81 l 797 81 l 797 -14 l 322 -14 l 322 190 z "},"Ç":{"ha":577,"x_min":-17,"x_max":492,"o":"m 222 -14 l 136 -14 q 20 60 57 -14 q -17 203 -17 133 l -17 712 q 20 856 -17 782 q 136 929 57 929 l 492 929 l 492 834 l 237 834 q 168 789 182 834 q 153 677 153 744 l 153 237 q 168 126 153 170 q 237 81 183 81 l 492 81 l 492 -14 l 391 -14 l 391 -81 l 391 -81 q 357 -258 391 -173 q 239 -353 319 -353 l 86 -353 l 86 -258 l 170 -258 q 210 -195 199 -254 q 222 -68 222 -135 l 222 -14 z "},"È":{"ha":543,"x_min":-46,"x_max":488,"o":"m 458 -14 l -17 -14 l -17 929 l 458 929 l 458 834 l 153 834 l 153 522 l 355 522 l 355 427 l 153 428 l 153 81 l 458 81 l 458 -14 m 488 970 l 300 970 l -46 1200 l 142 1200 l 488 970 z "},"É":{"ha":543,"x_min":-46,"x_max":488,"o":"m 458 -14 l -17 -14 l -17 929 l 458 929 l 458 834 l 153 834 l 153 522 l 355 522 l 355 427 l 153 428 l 153 81 l 458 81 l 458 -14 m 300 1200 l 488 1200 l 142 970 l -46 970 l 300 1200 z "},"Ê":{"ha":543,"x_min":-28,"x_max":470,"o":"m 458 -14 l -17 -14 l -17 929 l 458 929 l 458 834 l 153 834 l 153 522 l 355 522 l 355 427 l 153 428 l 153 81 l 458 81 l 458 -14 m 221 1082 l 146 970 l -28 970 l 126 1200 l 316 1200 l 470 970 l 296 970 l 221 1082 z "},"Ë":{"ha":543,"x_min":-17,"x_max":458,"o":"m 458 -14 l -17 -14 l -17 929 l 458 929 l 458 834 l 153 834 l 153 522 l 355 522 l 355 427 l 153 428 l 153 81 l 458 81 l 458 -14 m 1 1133 l 170 1133 l 170 970 l 1 970 l 1 1133 m 272 1133 l 441 1133 l 441 970 l 272 970 l 272 1133 z "},"Ì":{"ha":543,"x_min":-47,"x_max":488,"o":"m 135 -14 l 135 929 l 306 929 l 305 -14 l 135 -14 m 488 970 l 299 970 l -47 1200 l 142 1200 l 488 970 z "},"Í":{"ha":543,"x_min":-47,"x_max":488,"o":"m 135 -14 l 135 929 l 306 929 l 305 -14 l 135 -14 m 299 1200 l 488 1200 l 142 970 l -47 970 l 299 1200 z "},"Î":{"ha":543,"x_min":-28,"x_max":469,"o":"m 135 -14 l 135 929 l 306 929 l 305 -14 l 135 -14 m 220 1082 l 146 970 l -28 970 l 125 1200 l 315 1200 l 469 970 l 295 970 l 220 1082 z "},"Ï":{"ha":509,"x_min":-17,"x_max":424,"o":"m 118 -14 l 118 929 l 289 929 l 288 -14 l 118 -14 m -17 1133 l 153 1133 l 153 970 l -17 970 l -17 1133 m 254 1133 l 424 1133 l 424 970 l 254 970 l 254 1133 z "},"Ð":{"ha":780,"x_min":-17,"x_max":695,"o":"m 288 428 l 288 83 l 441 82 q 511 126 496 82 q 526 237 526 171 l 526 678 q 511 789 526 745 q 441 835 496 834 l 288 835 l 288 522 l 424 522 l 424 428 l 288 428 m 119 522 l 119 930 l 543 930 q 659 856 622 929 q 695 711 695 782 l 695 203 q 659 60 695 133 q 543 -14 622 -14 l 119 -13 l 119 427 l -17 427 l -17 521 l 119 522 z "},"Ñ":{"ha":678,"x_min":-17,"x_max":593,"o":"m 153 609 l 153 -14 l -17 -14 l -17 929 l 216 929 l 424 307 l 424 929 l 593 929 l 593 -14 l 360 -14 l 153 609 m 222 1167 q 389 1133 358 1133 q 450 1210 412 1133 l 581 1123 q 423 1004 500 1004 l 351 1004 q 185 1038 250 1037 q 126 961 163 1038 l -4 1048 q 152 1166 74 1166 l 222 1167 z "},"Ò":{"ha":678,"x_min":-17,"x_max":593,"o":"m 593 203 q 557 60 593 133 q 441 -14 520 -14 l 136 -14 q 20 60 57 -14 q -17 203 -17 133 l -17 712 q 20 856 -17 782 q 136 929 57 929 l 441 929 q 557 856 520 929 q 593 711 593 782 l 593 203 m 424 237 l 425 678 q 409 789 425 745 q 339 834 394 834 l 237 834 q 168 789 182 834 q 153 677 153 744 l 153 237 q 168 126 153 170 q 237 81 183 81 l 339 82 q 409 126 394 82 q 424 237 424 171 m 556 970 l 368 970 l 22 1200 l 210 1200 l 556 970 z "},"Ó":{"ha":678,"x_min":-17,"x_max":593,"o":"m 593 203 q 557 60 593 133 q 441 -14 520 -14 l 136 -14 q 20 60 57 -14 q -17 203 -17 133 l -17 712 q 20 856 -17 782 q 136 929 57 929 l 441 929 q 557 856 520 929 q 593 711 593 782 l 593 203 m 424 237 l 425 678 q 409 789 425 745 q 339 834 394 834 l 237 834 q 168 789 182 834 q 153 677 153 744 l 153 237 q 168 126 153 170 q 237 81 183 81 l 339 82 q 409 126 394 82 q 424 237 424 171 m 368 1200 l 556 1200 l 210 970 l 22 970 l 368 1200 z "},"Ô":{"ha":678,"x_min":-17,"x_max":593,"o":"m 593 203 q 557 60 593 133 q 441 -14 520 -14 l 136 -14 q 20 60 57 -14 q -17 203 -17 133 l -17 712 q 20 856 -17 782 q 136 929 57 929 l 441 929 q 557 856 520 929 q 593 711 593 782 l 593 203 m 424 237 l 425 678 q 409 789 425 745 q 339 834 394 834 l 237 834 q 168 789 182 834 q 153 677 153 744 l 153 237 q 168 126 153 170 q 237 81 183 81 l 339 82 q 409 126 394 82 q 424 237 424 171 m 289 1082 l 214 970 l 40 970 l 194 1200 l 384 1200 l 538 970 l 363 970 l 289 1082 z "},"Õ":{"ha":678,"x_min":-17,"x_max":593,"o":"m 593 203 q 557 60 593 133 q 441 -14 520 -14 l 136 -14 q 20 60 57 -14 q -17 203 -17 133 l -17 712 q 20 856 -17 782 q 136 929 57 929 l 441 929 q 557 856 520 929 q 593 711 593 782 l 593 203 m 424 237 l 425 678 q 409 789 425 745 q 339 834 394 834 l 237 834 q 168 789 182 834 q 153 677 153 744 l 153 237 q 168 126 153 170 q 237 81 183 81 l 339 82 q 409 126 394 82 q 424 237 424 171 m 223 1167 q 390 1133 359 1133 q 450 1210 412 1133 l 581 1123 q 424 1004 501 1004 l 352 1004 q 186 1038 251 1037 q 127 961 163 1038 l -3 1048 q 153 1166 75 1166 l 223 1167 z "},"Ö":{"ha":678,"x_min":-17,"x_max":593,"o":"m 593 203 q 557 60 593 133 q 441 -14 520 -14 l 136 -14 q 20 60 57 -14 q -17 203 -17 133 l -17 712 q 20 856 -17 782 q 136 929 57 929 l 441 929 q 557 856 520 929 q 593 711 593 782 l 593 203 m 424 237 l 425 678 q 409 789 425 745 q 339 834 394 834 l 237 834 q 168 789 182 834 q 153 677 153 744 l 153 237 q 168 126 153 170 q 237 81 183 81 l 339 82 q 409 126 394 82 q 424 237 424 171 m 68 1133 l 238 1133 l 238 970 l 68 970 l 68 1133 m 340 1133 l 509 1133 l 509 970 l 340 970 l 340 1133 z "},"×":{"ha":644,"x_min":-26,"x_max":569,"o":"m 185 458 l -26 827 l 146 827 l 271 609 l 396 827 l 569 827 l 357 458 l 569 88 l 396 88 l 271 307 l 146 88 l -26 88 l 185 458 z "},"Ø":{"ha":679,"x_min":-24,"x_max":602,"o":"m 381 827 q 339 834 372 834 l 237 834 q 168 789 182 834 q 153 677 153 744 l 153 354 l 381 827 m 197 87 q 237 81 205 81 l 339 82 q 409 126 394 82 q 424 237 424 171 l 425 560 l 197 87 m 562 846 q 593 711 593 781 l 593 203 q 557 60 593 133 q 441 -14 520 -14 l -24 -14 l 16 68 q -17 203 -17 134 l -17 712 q 20 856 -17 782 q 136 929 57 929 l 602 929 l 562 846 z "},"Ù":{"ha":679,"x_min":-17,"x_max":594,"o":"m 153 237 q 168 126 153 170 q 237 81 183 81 l 339 82 q 409 126 394 82 q 424 237 424 171 l 425 929 l 594 929 l 593 203 q 557 60 593 133 q 441 -14 520 -14 l 136 -14 q 20 60 57 -14 q -17 203 -17 133 l -16 929 l 153 929 l 153 237 m 556 970 l 368 970 l 22 1200 l 210 1200 l 556 970 z "},"Ú":{"ha":679,"x_min":-17,"x_max":594,"o":"m 153 237 q 168 126 153 170 q 237 81 183 81 l 339 82 q 409 126 394 82 q 424 237 424 171 l 425 929 l 594 929 l 593 203 q 557 60 593 133 q 441 -14 520 -14 l 136 -14 q 20 60 57 -14 q -17 203 -17 133 l -16 929 l 153 929 l 153 237 m 368 1200 l 556 1200 l 210 970 l 22 970 l 368 1200 z "},"Û":{"ha":679,"x_min":-17,"x_max":594,"o":"m 153 237 q 168 126 153 170 q 237 81 183 81 l 339 82 q 409 126 394 82 q 424 237 424 171 l 425 929 l 594 929 l 593 203 q 557 60 593 133 q 441 -14 520 -14 l 136 -14 q 20 60 57 -14 q -17 203 -17 133 l -16 929 l 153 929 l 153 237 m 289 1082 l 214 970 l 40 970 l 194 1200 l 384 1200 l 538 970 l 363 970 l 289 1082 z "},"Ü":{"ha":679,"x_min":-17,"x_max":594,"o":"m 153 237 q 168 126 153 170 q 237 81 183 81 l 339 82 q 409 126 394 82 q 424 237 424 171 l 425 929 l 594 929 l 593 203 q 557 60 593 133 q 441 -14 520 -14 l 136 -14 q 20 60 57 -14 q -17 203 -17 133 l -16 929 l 153 929 l 153 237 m 68 1133 l 238 1133 l 238 970 l 68 970 l 68 1133 m 340 1133 l 509 1133 l 509 970 l 340 970 l 340 1133 z "},"Ý":{"ha":644,"x_min":-24,"x_max":566,"o":"m 186 456 l -24 929 l 148 929 l 271 651 l 395 929 l 566 929 l 356 456 l 356 -14 l 186 -14 l 186 456 m 350 1200 l 538 1200 l 193 970 l 4 970 l 350 1200 z "},"Þ":{"ha":646,"x_min":-17,"x_max":561,"o":"m 153 726 l 408 726 q 524 653 486 726 q 561 475 561 580 q 524 298 560 372 q 408 224 487 224 l 188 224 l 188 319 l 339 319 q 376 366 361 321 q 391 475 391 410 q 376 586 391 541 q 340 631 361 631 l 154 631 l 154 -14 l -17 -14 l -16 713 l -16 929 l 153 929 l 153 726 z "},"ß":{"ha":646,"x_min":-17,"x_max":561,"o":"m 153 -14 l -16 -14 l -17 678 q 20 856 -17 782 q 136 929 57 929 l 408 929 q 524 856 487 929 q 561 678 561 782 q 525 503 561 574 q 507 475 515 482 q 526 446 515 467 q 561 271 561 375 q 524 60 561 134 q 408 -14 487 -14 l 187 -14 l 187 81 l 340 81 q 376 127 361 83 q 391 271 391 172 q 376 382 391 338 q 340 427 361 427 l 187 427 l 187 522 l 340 522 q 376 568 361 524 q 391 678 391 612 q 376 789 391 745 q 340 834 361 834 l 203 834 q 168 789 182 834 q 153 678 153 745 l 153 -14 z "},"à":{"ha":678,"x_min":-17,"x_max":593,"o":"m 593 509 l 593 -14 l 136 -14 q 20 42 58 -14 q -17 203 -17 98 q 20 364 -17 309 q 135 420 58 420 l 389 420 l 390 326 l 203 326 q 168 297 182 325 q 153 203 153 269 q 167 110 153 138 q 203 81 181 81 l 423 81 l 424 509 q 410 602 424 574 q 373 631 395 631 l 119 631 l 119 726 l 441 726 q 556 670 519 726 q 593 509 593 614 m 555 766 l 367 766 l 21 997 l 210 997 l 555 766 z "},"á":{"ha":678,"x_min":-17,"x_max":593,"o":"m 593 509 l 593 -14 l 136 -14 q 20 42 58 -14 q -17 203 -17 98 q 20 364 -17 309 q 135 420 58 420 l 389 420 l 390 326 l 203 326 q 168 297 182 325 q 153 203 153 269 q 167 110 153 138 q 203 81 181 81 l 423 81 l 424 509 q 410 602 424 574 q 373 631 395 631 l 119 631 l 119 726 l 441 726 q 556 670 519 726 q 593 509 593 614 m 367 997 l 555 997 l 210 766 l 21 766 l 367 997 z "},"â":{"ha":678,"x_min":-17,"x_max":593,"o":"m 593 509 l 593 -14 l 136 -14 q 20 42 58 -14 q -17 203 -17 98 q 20 364 -17 309 q 135 420 58 420 l 389 420 l 390 326 l 203 326 q 168 297 182 325 q 153 203 153 269 q 167 110 153 138 q 203 81 181 81 l 423 81 l 424 509 q 410 602 424 574 q 373 631 395 631 l 119 631 l 119 726 l 441 726 q 556 670 519 726 q 593 509 593 614 m 288 879 l 214 766 l 39 766 l 193 997 l 383 997 l 537 766 l 363 766 l 288 879 z "},"ã":{"ha":678,"x_min":-17,"x_max":593,"o":"m 593 509 l 593 -14 l 136 -14 q 20 42 58 -14 q -17 203 -17 98 q 20 364 -17 309 q 135 420 58 420 l 389 420 l 390 326 l 203 326 q 168 297 182 325 q 153 203 153 269 q 167 110 153 138 q 203 81 181 81 l 423 81 l 424 509 q 410 602 424 574 q 373 631 395 631 l 119 631 l 119 726 l 441 726 q 556 670 519 726 q 593 509 593 614 m 222 964 q 389 929 358 929 q 450 1006 412 929 l 581 920 q 423 800 500 801 l 351 800 q 185 834 250 833 q 126 758 163 834 l -4 844 q 152 963 74 963 l 222 964 z "},"ä":{"ha":678,"x_min":-17,"x_max":593,"o":"m 593 509 l 593 -14 l 136 -14 q 20 42 58 -14 q -17 203 -17 98 q 20 364 -17 309 q 135 420 58 420 l 389 420 l 390 326 l 203 326 q 168 297 182 325 q 153 203 153 269 q 167 110 153 138 q 203 81 181 81 l 423 81 l 424 509 q 410 602 424 574 q 373 631 395 631 l 119 631 l 119 726 l 441 726 q 556 670 519 726 q 593 509 593 614 m 68 929 l 237 929 l 237 766 l 68 766 l 68 929 m 339 929 l 509 929 l 509 766 l 339 766 l 339 929 z "},"å":{"ha":678,"x_min":-17,"x_max":593,"o":"m 593 509 l 593 -14 l 136 -14 q 20 42 58 -14 q -17 203 -17 98 q 20 364 -17 309 q 135 420 58 420 l 389 420 l 390 326 l 203 326 q 168 297 182 325 q 153 203 153 269 q 167 110 153 138 q 203 81 181 81 l 423 81 l 424 509 q 410 602 424 574 q 373 631 395 631 l 119 631 l 119 726 l 441 726 q 556 670 519 726 q 593 509 593 614 m 203 929 l 373 929 l 373 766 l 203 766 l 203 929 z "},"æ":{"ha":983,"x_min":-17,"x_max":899,"o":"m 356 509 q 342 602 356 574 q 305 631 328 631 l 119 631 l 119 726 l 373 726 q 441 711 418 726 q 509 726 463 726 l 746 726 q 861 670 824 726 q 899 509 899 614 q 861 348 899 404 q 747 292 824 292 l 560 292 l 559 387 l 678 387 q 714 415 700 387 q 729 509 728 444 q 715 602 729 574 q 678 631 701 631 l 576 631 q 540 602 555 631 q 526 509 526 574 l 526 203 q 540 110 526 138 q 576 81 554 81 l 831 81 l 831 -14 l 136 -14 q 20 42 58 -14 q -17 203 -17 98 q 20 364 -17 309 q 135 420 58 420 l 321 420 l 322 326 l 203 326 q 168 297 182 325 q 153 203 153 269 q 167 110 153 138 q 203 81 181 81 l 355 81 l 356 509 z "},"ç":{"ha":576,"x_min":-17,"x_max":492,"o":"m 221 -14 l 134 -14 q 19 60 56 -14 q -17 203 -17 133 l -17 509 q 20 652 -17 579 q 135 726 56 726 l 492 726 l 492 631 l 237 631 q 167 586 182 631 q 153 474 153 541 l 153 237 q 167 126 153 171 q 236 81 182 81 l 491 81 l 491 -14 l 390 -14 l 390 -81 l 389 -81 q 355 -258 389 -173 q 237 -353 317 -353 l 85 -353 l 85 -258 l 168 -258 q 209 -195 197 -254 q 220 -68 220 -135 l 221 -14 z "},"è":{"ha":678,"x_min":-17,"x_max":593,"o":"m -17 203 l -17 509 q 20 670 -17 614 q 136 726 58 726 l 441 726 q 556 670 519 726 q 593 509 593 614 q 556 348 593 404 q 441 292 519 292 l 187 292 l 186 387 l 373 387 q 409 415 395 387 q 424 509 423 444 q 410 602 424 574 q 373 631 395 631 l 203 631 q 167 602 182 631 q 153 509 153 574 l 153 203 q 167 110 153 138 q 203 81 181 81 l 526 81 l 526 -14 l 136 -14 q 20 42 58 -14 q -17 203 -17 98 m 555 766 l 367 766 l 21 997 l 210 997 l 555 766 z "},"é":{"ha":678,"x_min":-17,"x_max":593,"o":"m -17 203 l -17 509 q 20 670 -17 614 q 136 726 58 726 l 441 726 q 556 670 519 726 q 593 509 593 614 q 556 348 593 404 q 441 292 519 292 l 187 292 l 186 387 l 373 387 q 409 415 395 387 q 424 509 423 444 q 410 602 424 574 q 373 631 395 631 l 203 631 q 167 602 182 631 q 153 509 153 574 l 153 203 q 167 110 153 138 q 203 81 181 81 l 526 81 l 526 -14 l 136 -14 q 20 42 58 -14 q -17 203 -17 98 m 367 997 l 555 997 l 210 766 l 21 766 l 367 997 z "},"ê":{"ha":678,"x_min":-17,"x_max":593,"o":"m -17 203 l -17 509 q 20 670 -17 614 q 136 726 58 726 l 441 726 q 556 670 519 726 q 593 509 593 614 q 556 348 593 404 q 441 292 519 292 l 187 292 l 186 387 l 373 387 q 409 415 395 387 q 424 509 423 444 q 410 602 424 574 q 373 631 395 631 l 203 631 q 167 602 182 631 q 153 509 153 574 l 153 203 q 167 110 153 138 q 203 81 181 81 l 526 81 l 526 -14 l 136 -14 q 20 42 58 -14 q -17 203 -17 98 m 288 879 l 214 766 l 39 766 l 193 997 l 383 997 l 537 766 l 363 766 l 288 879 z "},"ë":{"ha":678,"x_min":-17,"x_max":593,"o":"m -17 203 l -17 509 q 20 670 -17 614 q 136 726 58 726 l 441 726 q 556 670 519 726 q 593 509 593 614 q 556 348 593 404 q 441 292 519 292 l 187 292 l 186 387 l 373 387 q 409 415 395 387 q 424 509 423 444 q 410 602 424 574 q 373 631 395 631 l 203 631 q 167 602 182 631 q 153 509 153 574 l 153 203 q 167 110 153 138 q 203 81 181 81 l 526 81 l 526 -14 l 136 -14 q 20 42 58 -14 q -17 203 -17 98 m 68 929 l 237 929 l 237 766 l 68 766 l 68 929 m 339 929 l 509 929 l 509 766 l 339 766 l 339 929 z "},"ì":{"ha":543,"x_min":-47,"x_max":488,"o":"m 305 -14 l 136 -14 l 136 726 l 305 725 l 305 -14 m 488 766 l 299 766 l -47 997 l 142 997 l 488 766 z "},"í":{"ha":543,"x_min":-47,"x_max":488,"o":"m 305 -14 l 136 -14 l 136 726 l 305 725 l 305 -14 m 299 997 l 488 997 l 142 766 l -47 766 l 299 997 z "},"î":{"ha":543,"x_min":-28,"x_max":469,"o":"m 305 -14 l 136 -14 l 136 726 l 305 725 l 305 -14 m 220 879 l 146 766 l -28 766 l 125 997 l 315 997 l 469 766 l 295 766 l 220 879 z "},"ï":{"ha":509,"x_min":-17,"x_max":424,"o":"m 288 -14 l 119 -14 l 119 726 l 288 725 l 288 -14 m -17 929 l 153 929 l 153 766 l -17 766 l -17 929 m 254 929 l 424 929 l 424 766 l 254 766 l 254 929 z "},"ð":{"ha":814,"x_min":-17,"x_max":729,"o":"m 423 861 l 423 929 l 593 929 l 593 861 l 729 861 l 729 766 l 593 766 l 593 -14 l 136 -14 q 20 60 56 -14 q -17 204 -17 134 l -17 509 q 20 652 -17 579 q 135 726 56 726 l 389 726 l 389 631 l 237 631 q 168 586 182 630 q 153 475 153 541 l 153 237 q 168 126 153 171 q 237 81 182 81 l 423 81 l 423 766 l 288 766 l 288 861 l 423 861 z "},"ñ":{"ha":679,"x_min":-17,"x_max":594,"o":"m 424 475 q 409 586 424 542 q 340 631 394 631 l 153 631 l 153 -14 l -17 -14 l -17 726 l 441 726 q 557 652 520 726 q 594 509 594 579 l 593 -14 l 424 -14 l 424 475 m 223 964 q 390 929 359 929 q 450 1006 412 929 l 581 920 q 424 800 501 801 l 352 800 q 186 834 251 833 q 127 758 163 834 l -3 844 q 153 963 75 963 l 223 964 z "},"ò":{"ha":678,"x_min":-17,"x_max":593,"o":"m 593 203 q 557 60 593 133 q 441 -14 520 -14 l 136 -14 q 20 60 57 -14 q -17 203 -17 133 l -17 509 q 20 652 -17 578 q 136 726 57 726 l 441 726 q 557 652 520 726 q 593 508 593 578 l 593 203 m 424 237 l 424 475 q 409 586 424 541 q 339 631 394 631 l 237 631 q 168 586 182 631 q 153 474 153 541 l 153 237 q 168 126 153 170 q 237 81 183 81 l 339 82 q 409 126 394 82 q 424 237 424 171 m 556 766 l 368 766 l 22 997 l 210 997 l 556 766 z "},"ó":{"ha":678,"x_min":-17,"x_max":593,"o":"m 593 203 q 557 60 593 133 q 441 -14 520 -14 l 136 -14 q 20 60 57 -14 q -17 203 -17 133 l -17 509 q 20 652 -17 578 q 136 726 57 726 l 441 726 q 557 652 520 726 q 593 508 593 578 l 593 203 m 424 237 l 424 475 q 409 586 424 541 q 339 631 394 631 l 237 631 q 168 586 182 631 q 153 474 153 541 l 153 237 q 168 126 153 170 q 237 81 183 81 l 339 82 q 409 126 394 82 q 424 237 424 171 m 368 997 l 556 997 l 210 766 l 22 766 l 368 997 z "},"ô":{"ha":678,"x_min":-17,"x_max":593,"o":"m 593 203 q 557 60 593 133 q 441 -14 520 -14 l 136 -14 q 20 60 57 -14 q -17 203 -17 133 l -17 509 q 20 652 -17 578 q 136 726 57 726 l 441 726 q 557 652 520 726 q 593 508 593 578 l 593 203 m 424 237 l 424 475 q 409 586 424 541 q 339 631 394 631 l 237 631 q 168 586 182 631 q 153 474 153 541 l 153 237 q 168 126 153 170 q 237 81 183 81 l 339 82 q 409 126 394 82 q 424 237 424 171 m 289 879 l 214 766 l 40 766 l 194 997 l 384 997 l 538 766 l 363 766 l 289 879 z "},"õ":{"ha":678,"x_min":-17,"x_max":593,"o":"m 593 203 q 557 60 593 133 q 441 -14 520 -14 l 136 -14 q 20 60 57 -14 q -17 203 -17 133 l -17 509 q 20 652 -17 578 q 136 726 57 726 l 441 726 q 557 652 520 726 q 593 508 593 578 l 593 203 m 424 237 l 424 475 q 409 586 424 541 q 339 631 394 631 l 237 631 q 168 586 182 631 q 153 474 153 541 l 153 237 q 168 126 153 170 q 237 81 183 81 l 339 82 q 409 126 394 82 q 424 237 424 171 m 223 964 q 390 929 359 929 q 450 1006 412 929 l 581 920 q 424 800 501 801 l 352 800 q 186 834 251 833 q 127 758 163 834 l -3 844 q 153 963 75 963 l 223 964 z "},"ö":{"ha":678,"x_min":-17,"x_max":593,"o":"m 593 203 q 557 60 593 133 q 441 -14 520 -14 l 136 -14 q 20 60 57 -14 q -17 203 -17 133 l -17 509 q 20 652 -17 578 q 136 726 57 726 l 441 726 q 557 652 520 726 q 593 508 593 578 l 593 203 m 424 237 l 424 475 q 409 586 424 541 q 339 631 394 631 l 237 631 q 168 586 182 631 q 153 474 153 541 l 153 237 q 168 126 153 170 q 237 81 183 81 l 339 82 q 409 126 394 82 q 424 237 424 171 m 68 929 l 238 929 l 238 766 l 68 766 l 68 929 m 340 929 l 509 929 l 509 766 l 340 766 l 340 929 z "},"÷":{"ha":509,"x_min":-17,"x_max":424,"o":"m -17 522 l 424 522 l 424 428 l -17 427 l -17 522 m 119 760 l 288 760 l 288 597 l 119 597 l 119 760 m 119 190 l 119 353 l 288 353 l 288 190 l 119 190 z "},"ø":{"ha":679,"x_min":-26,"x_max":604,"o":"m 207 83 q 237 81 211 81 l 339 82 q 409 126 394 82 q 424 237 424 171 l 424 434 l 207 83 m 370 629 q 339 631 366 631 l 237 631 q 168 586 182 631 q 153 474 153 541 l 153 277 l 370 629 m 558 650 l 558 650 q 593 508 593 578 l 593 203 q 557 60 593 133 q 441 -14 520 -14 l -26 -14 l 19 60 l 18 64 q -17 203 -17 133 l -17 509 q 20 652 -17 578 q 136 726 57 726 l 604 726 l 558 650 z "},"ù":{"ha":679,"x_min":-17,"x_max":594,"o":"m 153 237 q 168 126 153 170 q 237 81 183 81 l 425 81 l 425 726 l 594 726 l 594 -14 l 136 -14 q 20 60 57 -14 q -17 203 -17 133 l -16 726 l 153 726 l 153 237 m 556 766 l 368 766 l 22 997 l 210 997 l 556 766 z "},"ú":{"ha":679,"x_min":-17,"x_max":594,"o":"m 153 237 q 168 126 153 170 q 237 81 183 81 l 425 81 l 425 726 l 594 726 l 594 -14 l 136 -14 q 20 60 57 -14 q -17 203 -17 133 l -16 726 l 153 726 l 153 237 m 368 997 l 556 997 l 210 766 l 22 766 l 368 997 z "},"û":{"ha":679,"x_min":-17,"x_max":594,"o":"m 153 237 q 168 126 153 170 q 237 81 183 81 l 425 81 l 425 726 l 594 726 l 594 -14 l 136 -14 q 20 60 57 -14 q -17 203 -17 133 l -16 726 l 153 726 l 153 237 m 289 879 l 214 766 l 40 766 l 194 997 l 384 997 l 538 766 l 363 766 l 289 879 z "},"ü":{"ha":679,"x_min":-17,"x_max":594,"o":"m 153 237 q 168 126 153 170 q 237 81 183 81 l 425 81 l 425 726 l 594 726 l 594 -14 l 136 -14 q 20 60 57 -14 q -17 203 -17 133 l -16 726 l 153 726 l 153 237 m 68 929 l 238 929 l 238 766 l 68 766 l 68 929 m 340 929 l 509 929 l 509 766 l 340 766 l 340 929 z "},"ý":{"ha":644,"x_min":-21,"x_max":564,"o":"m 270 302 l 393 726 l 564 726 l 355 5 l 359 -14 l 349 -14 l 251 -353 l 81 -353 l 184 5 l -21 726 l 149 726 l 270 302 m 367 997 l 555 997 l 210 766 l 21 766 l 367 997 z "},"þ":{"ha":677,"x_min":-17,"x_max":593,"o":"m 153 -353 l -17 -353 l -17 929 l 153 929 l 153 726 l 440 726 q 556 652 519 726 q 593 508 593 578 l 593 203 q 556 60 593 133 q 441 -14 519 -14 l 186 -14 l 186 81 l 339 81 q 408 126 393 82 q 423 237 423 171 l 423 475 q 408 586 423 541 q 338 631 393 631 l 153 631 l 153 -353 z "},"ÿ":{"ha":644,"x_min":-21,"x_max":564,"o":"m 270 302 l 393 726 l 564 726 l 355 5 l 359 -14 l 349 -14 l 251 -353 l 81 -353 l 184 5 l -21 726 l 149 726 l 270 302 m 51 929 l 220 929 l 220 766 l 51 766 l 51 929 m 322 929 l 492 929 l 492 766 l 322 766 l 322 929 z "},"ı":{"ha":237,"x_min":-17,"x_max":153,"o":"m 153 -14 l -17 -14 l -17 726 l 153 725 l 153 -14 z "},"ˆ":{"ha":543,"x_min":-28,"x_max":469,"o":"m 220 1082 l 146 970 l -28 970 l 125 1200 l 315 1200 l 469 970 l 295 970 l 220 1082 z "},"ˇ":{"ha":543,"x_min":-28,"x_max":469,"o":"m 220 1088 l 295 1200 l 469 1200 l 315 970 l 125 970 l -28 1200 l 146 1200 l 220 1088 z "},"ˉ":{"ha":452,"x_min":-17,"x_max":367,"o":"m -17 797 l -17 909 l 367 909 l 367 797 l -17 797 z "},"˘":{"ha":498,"x_min":-19,"x_max":415,"o":"m -19 928 l 49 928 q 96 853 62 873 q 199 833 130 833 q 301 852 267 833 q 347 928 334 872 l 415 928 q 344 769 399 819 q 199 718 290 718 q 53 769 109 718 q -19 928 -2 820 z "},"˙":{"ha":237,"x_min":-17,"x_max":153,"o":"m -17 1133 l 153 1133 l 153 970 l -17 970 l -17 1133 z "},"˚":{"ha":237,"x_min":-17,"x_max":153,"o":"m -17 1133 l 153 1133 l 153 970 l -17 970 l -17 1133 z "},"˛":{"ha":373,"x_min":-17,"x_max":288,"o":"m 153 -68 q 164 -195 153 -135 q 205 -258 176 -254 l 288 -258 l 288 -353 l 136 -353 q 18 -258 56 -353 q -16 -81 -16 -173 l -17 -81 l -17 14 l 152 14 l 153 -68 z "},"˜":{"ha":644,"x_min":-21,"x_max":564,"o":"m 205 1167 q 372 1133 341 1133 q 433 1210 395 1133 l 564 1123 q 406 1004 484 1004 l 334 1004 q 168 1038 233 1037 q 109 961 146 1038 l -21 1048 q 135 1166 57 1166 l 205 1167 z "},"˝":{"ha":576,"x_min":-28,"x_max":503,"o":"m 350 970 l 176 970 l 330 1200 l 503 1200 l 350 970 m 146 970 l -28 970 l 126 1200 l 299 1200 l 146 970 z "},"–":{"ha":777,"x_min":-17,"x_max":692,"o":"m -17 271 l -17 379 l 692 379 l 692 271 l -17 271 z "},"—":{"ha":1491,"x_min":-17,"x_max":1406,"o":"m -17 271 l -17 379 l 1406 379 l 1406 271 l -17 271 z "},"‘":{"ha":238,"x_min":-17,"x_max":153,"o":"m 153 631 l -17 631 l -16 929 l 80 929 l 153 783 l 153 631 z "},"’":{"ha":238,"x_min":-17,"x_max":153,"o":"m -17 929 l 153 929 l 153 631 l 56 631 l -17 777 l -17 929 z "},"‚":{"ha":238,"x_min":-17,"x_max":153,"o":"m -17 149 l 153 149 l 153 -149 l 56 -149 l -17 -3 l -17 149 z "},"“":{"ha":441,"x_min":-17,"x_max":357,"o":"m 357 631 l 187 631 l 187 929 l 283 929 l 357 783 l 357 631 m 153 631 l -17 631 l -16 929 l 80 929 l 153 783 l 153 631 z "},"”":{"ha":441,"x_min":-17,"x_max":357,"o":"m -17 929 l 153 929 l 153 631 l 56 631 l -17 777 l -17 929 m 186 929 l 357 929 l 356 631 l 260 631 l 186 777 l 186 929 z "},"„":{"ha":441,"x_min":-17,"x_max":357,"o":"m -17 149 l 153 149 l 153 -149 l 56 -149 l -17 -3 l -17 149 m 186 149 l 357 149 l 356 -149 l 260 -149 l 186 -3 l 186 149 z "},"†":{"ha":694,"x_min":-17,"x_max":609,"o":"m 263 709 q 229 808 259 755 q 189 901 189 880 q 219 964 189 940 q 296 988 248 988 q 372 966 341 988 q 402 907 402 943 q 363 809 402 883 q 329 708 334 753 q 421 741 370 711 q 518 782 494 782 q 585 753 560 782 q 609 679 609 724 q 587 606 609 637 q 524 576 564 576 q 422 615 498 576 q 328 650 368 645 q 404 481 333 551 q 326 -197 330 164 l 267 -197 q 188 481 262 164 q 264 650 258 551 q 170 617 222 646 q 73 576 98 576 q 7 605 31 576 q -17 679 -17 634 q 5 751 -17 721 q 67 782 28 782 q 170 742 94 782 q 263 709 224 712 z "},"‡":{"ha":694,"x_min":-17,"x_max":609,"o":"m 328 142 q 422 176 368 146 q 524 216 498 216 q 587 185 564 216 q 609 113 609 155 q 585 39 609 68 q 518 9 560 9 q 421 51 494 9 q 329 83 370 80 q 363 -18 334 38 q 402 -116 402 -92 q 372 -174 402 -152 q 296 -197 341 -197 q 219 -173 248 -197 q 189 -110 189 -149 q 229 -17 189 -88 q 263 83 259 36 q 170 50 224 79 q 67 9 94 9 q 5 40 28 9 q -17 113 -17 71 q 7 186 -17 157 q 73 216 31 216 q 170 174 98 216 q 264 142 222 146 q 187 396 258 276 q 264 650 258 515 q 170 617 222 646 q 73 576 98 576 q 7 605 31 576 q -17 679 -17 634 q 5 751 -17 721 q 67 782 28 782 q 170 742 94 782 q 263 709 224 712 q 229 808 259 755 q 189 901 189 880 q 219 964 189 940 q 296 988 248 988 q 372 966 341 988 q 402 907 402 943 q 363 809 402 883 q 329 708 334 753 q 421 741 370 711 q 518 782 494 782 q 585 753 560 782 q 609 679 609 724 q 587 606 609 637 q 524 576 564 576 q 422 615 498 576 q 328 650 368 645 q 404 396 333 515 q 328 142 333 276 z "},"•":{"ha":503,"x_min":-17,"x_max":418,"o":"m -17 487 q 46 638 -17 575 q 201 701 110 701 q 355 637 292 701 q 418 487 418 574 q 355 336 418 399 q 200 272 291 272 q 46 335 109 272 q -17 487 -17 399 z "},"…":{"ha":645,"x_min":-17,"x_max":560,"o":"m 153 -14 l -16 -14 l -17 149 l 153 149 l 153 -14 m 357 -14 l 187 -14 l 186 149 l 357 149 l 357 -14 m 560 -14 l 391 -14 l 390 149 l 560 149 l 560 -14 z "},"‹":{"ha":509,"x_min":-24,"x_max":450,"o":"m -24 475 l 264 692 l 450 692 l 160 475 l 450 258 l 264 258 l -24 475 z "},"›":{"ha":509,"x_min":-43,"x_max":431,"o":"m 142 258 l -43 258 l 247 475 l -43 692 l 142 692 l 431 475 l 142 258 z "},"⁄":{"ha":644,"x_min":-24,"x_max":566,"o":"m 395 929 l 566 929 l 148 -14 l -24 -14 l 395 929 z "},"∕":{"ha":644,"x_min":-24,"x_max":566,"o":"m 395 929 l 566 929 l 148 -14 l -24 -14 l 395 929 z "},"₣":{"ha":678,"x_min":-17,"x_max":593,"o":"m 288 122 l 288 -14 l 119 -14 l 119 122 l -17 122 l -17 217 l 119 217 l 119 929 l 593 929 l 593 834 l 288 834 l 288 522 l 491 522 l 491 427 l 288 427 l 288 217 l 424 217 l 424 122 l 288 122 z "},"₤":{"ha":576,"x_min":-17,"x_max":492,"o":"m -17 -14 l -17 81 l 119 81 l 119 427 l -17 427 l -17 522 l 119 522 l 119 678 q 155 856 119 783 q 271 929 192 929 l 492 930 l 492 834 l 338 834 q 303 789 317 834 q 289 679 289 745 l 289 522 l 492 522 l 492 427 l 288 427 l 288 81 l 492 81 l 492 -14 l -17 -14 z "},"₧":{"ha":780,"x_min":-17,"x_max":695,"o":"m 118 217 l 118 929 l 543 929 q 658 856 621 929 q 695 678 695 783 q 658 501 694 574 q 542 427 621 427 l 322 427 l 322 522 l 473 522 q 510 568 495 524 q 526 677 525 612 q 510 789 526 744 q 474 834 495 834 l 288 834 l 288 217 l 424 217 l 424 122 l 288 122 l 288 -14 l 118 -14 l 118 122 l -17 122 l -17 217 l 118 217 z "},"€":{"ha":713,"x_min":-17,"x_max":628,"o":"m 119 624 l 119 712 q 156 856 119 782 q 271 929 193 929 l 628 929 l 628 834 l 373 834 q 303 789 318 834 q 289 677 289 744 l 289 624 l 425 624 l 425 529 l 289 529 l 289 420 l 425 420 l 425 326 l 289 326 l 289 237 q 304 126 289 170 q 373 81 319 81 l 628 81 l 628 -14 l 271 -14 q 156 60 193 -14 q 119 203 119 133 l 119 326 l -17 326 l -17 420 l 119 420 l 119 529 l -17 529 l -17 624 l 119 624 z "},"№":{"ha":729,"x_min":-17,"x_max":644,"o":"m 85 711 l 85 444 l -17 444 l -17 929 l 115 929 l 203 663 l 203 929 l 305 929 l 305 444 l 174 444 l 85 711 m 644 559 q 625 484 644 523 q 560 444 605 444 l 407 444 q 342 484 362 444 q 322 559 322 523 l 322 814 q 342 890 322 850 q 407 929 362 929 l 559 929 q 625 890 605 929 q 644 814 644 850 l 644 559 m 543 576 l 543 797 q 536 849 543 829 q 509 868 530 868 l 458 868 q 431 849 437 868 q 425 797 425 829 l 425 576 q 431 525 425 544 q 458 505 437 505 l 509 506 q 536 525 530 506 q 543 576 543 545 z "},"™":{"ha":763,"x_min":-17,"x_max":678,"o":"m 289 868 l 186 868 l 186 444 l 85 444 l 85 868 l -16 868 l -17 929 l 289 929 l 289 868 m 407 549 l 407 444 l 305 444 l 305 929 l 439 929 l 492 642 l 545 929 l 678 929 l 678 444 l 576 444 l 576 549 l 557 444 l 426 444 l 407 549 z "},"∂":{"ha":1119,"x_min":0,"x_max":1017,"o":"m 136 0 q 0 136 0 0 l 0 882 q 136 1017 0 1017 l 882 1017 q 1017 882 1017 1017 l 1017 136 q 882 0 1017 0 l 136 0 m 882 17 q 1000 136 1000 17 l 1000 882 q 882 1000 1000 1000 l 136 1000 q 17 882 18 1000 l 17 136 q 136 17 18 17 l 882 17 z "},"∆":{"ha":1119,"x_min":0,"x_max":1017,"o":"m 136 0 q 0 136 0 0 l 0 882 q 136 1017 0 1017 l 882 1017 q 1017 882 1017 1017 l 1017 136 q 882 0 1017 0 l 136 0 m 882 17 q 1000 136 1000 17 l 1000 882 q 882 1000 1000 1000 l 136 1000 q 17 882 18 1000 l 17 136 q 136 17 18 17 l 882 17 z "},"∏":{"ha":1119,"x_min":0,"x_max":1017,"o":"m 136 0 q 0 136 0 0 l 0 882 q 136 1017 0 1017 l 882 1017 q 1017 882 1017 1017 l 1017 136 q 882 0 1017 0 l 136 0 m 882 17 q 1000 136 1000 17 l 1000 882 q 882 1000 1000 1000 l 136 1000 q 17 882 18 1000 l 17 136 q 136 17 18 17 l 882 17 z "},"∑":{"ha":1119,"x_min":0,"x_max":1017,"o":"m 136 0 q 0 136 0 0 l 0 882 q 136 1017 0 1017 l 882 1017 q 1017 882 1017 1017 l 1017 136 q 882 0 1017 0 l 136 0 m 882 17 q 1000 136 1000 17 l 1000 882 q 882 1000 1000 1000 l 136 1000 q 17 882 18 1000 l 17 136 q 136 17 18 17 l 882 17 z "},"−":{"ha":671,"x_min":-17,"x_max":587,"o":"m -17 425 l -17 547 l 577 547 l 587 538 l 587 425 l -17 425 z "},"≈":{"ha":1119,"x_min":0,"x_max":1017,"o":"m 136 0 q 0 136 0 0 l 0 882 q 136 1017 0 1017 l 882 1017 q 1017 882 1017 1017 l 1017 136 q 882 0 1017 0 l 136 0 m 882 17 q 1000 136 1000 17 l 1000 882 q 882 1000 1000 1000 l 136 1000 q 17 882 18 1000 l 17 136 q 136 17 18 17 l 882 17 z "},"≤":{"ha":1119,"x_min":0,"x_max":1017,"o":"m 136 0 q 0 136 0 0 l 0 882 q 136 1017 0 1017 l 882 1017 q 1017 882 1017 1017 l 1017 136 q 882 0 1017 0 l 136 0 m 882 17 q 1000 136 1000 17 l 1000 882 q 882 1000 1000 1000 l 136 1000 q 17 882 18 1000 l 17 136 q 136 17 18 17 l 882 17 z "},"≥":{"ha":1119,"x_min":0,"x_max":1017,"o":"m 136 0 q 0 136 0 0 l 0 882 q 136 1017 0 1017 l 882 1017 q 1017 882 1017 1017 l 1017 136 q 882 0 1017 0 l 136 0 m 882 17 q 1000 136 1000 17 l 1000 882 q 882 1000 1000 1000 l 136 1000 q 17 882 18 1000 l 17 136 q 136 17 18 17 l 882 17 z "},"":{"ha":102,"x_min":0,"x_max":0,"o":""},"ﬁ":{"ha":102,"x_min":0,"x_max":0,"o":""},"":{"ha":102,"x_min":0,"x_max":0,"o":""},"ﬂ":{"ha":102,"x_min":0,"x_max":0,"o":""},"Œ":{"ha":983,"x_min":-17,"x_max":899,"o":"m 424 237 l 425 678 q 409 789 425 745 q 339 834 394 834 l 237 834 q 168 789 182 834 q 153 677 153 744 l 153 237 q 168 126 153 170 q 237 81 183 81 l 339 82 q 409 126 394 82 q 424 237 424 171 m 136 -14 q 20 60 57 -14 q -17 203 -17 133 l -17 712 q 20 856 -17 782 q 136 929 57 929 l 899 929 l 899 834 l 593 834 l 593 522 l 796 522 l 796 427 l 593 428 l 593 81 l 899 81 l 899 -14 l 136 -14 z "},"œ":{"ha":1119,"x_min":-17,"x_max":1034,"o":"m 424 237 l 424 475 q 409 586 424 541 q 339 631 394 631 l 237 631 q 168 586 182 631 q 153 474 153 541 l 153 237 q 168 126 153 170 q 237 81 183 81 l 339 82 q 409 126 394 82 q 424 237 424 171 m 505 2 q 441 -14 485 -14 l 136 -14 q 20 60 57 -14 q -17 203 -17 133 l -17 509 q 20 652 -17 578 q 136 726 57 726 l 441 726 q 505 710 484 726 q 576 726 528 726 l 882 726 q 997 670 960 726 q 1034 509 1034 614 q 997 348 1034 404 q 882 292 960 292 l 628 292 l 627 387 l 814 387 q 850 415 836 387 q 865 509 864 444 q 850 602 865 574 q 814 631 836 631 l 644 631 q 608 602 623 631 q 593 509 593 574 l 593 203 q 608 110 593 138 q 644 81 622 81 l 966 81 l 966 -14 l 576 -14 q 505 2 528 -14 z "},"‰":{"ha":1187,"x_min":-17,"x_max":1102,"o":"m 593 238 q 578 349 593 304 q 509 394 563 394 q 439 349 454 394 q 425 237 425 304 q 439 126 425 170 q 508 82 454 82 q 578 126 563 82 q 593 238 593 171 m 321 679 q 307 790 321 745 q 237 835 292 835 q 168 790 182 835 q 153 678 153 745 q 168 567 153 611 q 237 523 182 523 q 307 567 292 523 q 321 679 321 612 m 848 394 q 778 349 793 394 q 764 237 764 304 q 778 126 764 170 q 847 82 793 82 l 848 82 q 917 126 903 82 q 932 237 932 170 q 917 349 932 304 q 848 394 903 394 m 678 4 q 610 -14 658 -14 l 407 -14 q 290 63 328 -14 q 283 75 283 75 q 282 75 282 75 q 285 66 282 73 l 250 -14 l 78 -14 l 274 427 l 136 427 q 20 500 57 427 q -17 644 -17 574 l -17 713 q 20 856 -17 783 q 136 930 57 930 l 338 930 q 456 853 418 930 q 463 840 462 840 q 460 848 463 842 l 496 929 l 668 929 l 473 489 l 610 489 q 678 471 656 489 q 746 489 699 489 l 949 489 q 1065 415 1028 489 q 1102 272 1102 342 l 1102 203 q 1065 60 1102 133 q 949 -14 1028 -14 l 746 -14 q 678 4 699 -14 z "}}}
